  0
SECTION
  2
HEADER
  9
$ACADVER
  1
AC1018
  9
$ACADMAINTVER
 70
    39
  9
$DWGCODEPAGE
  3
ANSI_1252
  9
$INSBASE
 10
0.0
 20
0.0
 30
0.0
  9
$EXTMIN
 10
100.0000000000145
 20
98.8000000000145
 30
0.0
  9
$EXTMAX
 10
200.0000000000145
 20
170.0000000000145
 30
0.0000000000145519
  9
$LIMMIN
 10
0.0
 20
0.0
  9
$LIMMAX
 10
420.0
 20
297.0
  9
$ORTHOMODE
 70
     0
  9
$REGENMODE
 70
     1
  9
$FILLMODE
 70
     1
  9
$QTEXTMODE
 70
     0
  9
$MIRRTEXT
 70
     1
  9
$LTSCALE
 40
1.0
  9
$ATTMODE
 70
     1
  9
$TEXTSIZE
 40
2.5
  9
$TRACEWID
 40
1.0
  9
$TEXTSTYLE
  7
Standard
  9
$CLAYER
  8
0
  9
$CELTYPE
  6
ByLayer
  9
$CECOLOR
 62
   256
  9
$CELTSCALE
 40
1.0
  9
$DISPSILH
 70
     0
  9
$DIMSCALE
 40
1.0
  9
$DIMASZ
 40
2.5
  9
$DIMEXO
 40
0.625
  9
$DIMDLI
 40
3.75
  9
$DIMRND
 40
0.0
  9
$DIMDLE
 40
0.0
  9
$DIMEXE
 40
1.25
  9
$DIMTP
 40
0.0
  9
$DIMTM
 40
0.0
  9
$DIMTXT
 40
2.5
  9
$DIMCEN
 40
2.5
  9
$DIMTSZ
 40
0.0
  9
$DIMTOL
 70
     0
  9
$DIMLIM
 70
     0
  9
$DIMTIH
 70
     0
  9
$DIMTOH
 70
     0
  9
$DIMSE1
 70
     0
  9
$DIMSE2
 70
     0
  9
$DIMTAD
 70
     1
  9
$DIMZIN
 70
     8
  9
$DIMBLK
  1

  9
$DIMASO
 70
     1
  9
$DIMSHO
 70
     1
  9
$DIMPOST
  1

  9
$DIMAPOST
  1

  9
$DIMALT
 70
     0
  9
$DIMALTD
 70
     3
  9
$DIMALTF
 40
0.03937007874016
  9
$DIMLFAC
 40
1.0
  9
$DIMTOFL
 70
     1
  9
$DIMTVP
 40
0.0
  9
$DIMTIX
 70
     0
  9
$DIMSOXD
 70
     0
  9
$DIMSAH
 70
     0
  9
$DIMBLK1
  1

  9
$DIMBLK2
  1

  9
$DIMSTYLE
  2
ISO-25
  9
$DIMCLRD
 70
     0
  9
$DIMCLRE
 70
     0
  9
$DIMCLRT
 70
     0
  9
$DIMTFAC
 40
1.0
  9
$DIMGAP
 40
0.625
  9
$DIMJUST
 70
     0
  9
$DIMSD1
 70
     0
  9
$DIMSD2
 70
     0
  9
$DIMTOLJ
 70
     0
  9
$DIMTZIN
 70
     8
  9
$DIMALTZ
 70
     0
  9
$DIMALTTZ
 70
     0
  9
$DIMUPT
 70
     0
  9
$DIMDEC
 70
     2
  9
$DIMTDEC
 70
     2
  9
$DIMALTU
 70
     2
  9
$DIMALTTD
 70
     3
  9
$DIMTXSTY
  7
Standard
  9
$DIMAUNIT
 70
     0
  9
$DIMADEC
 70
     0
  9
$DIMALTRND
 40
0.0
  9
$DIMAZIN
 70
     0
  9
$DIMDSEP
 70
    44
  9
$DIMATFIT
 70
     3
  9
$DIMFRAC
 70
     0
  9
$DIMLDRBLK
  1

  9
$DIMLUNIT
 70
     2
  9
$DIMLWD
 70
    -2
  9
$DIMLWE
 70
    -2
  9
$DIMTMOVE
 70
     0
  9
$LUNITS
 70
     2
  9
$LUPREC
 70
     4
  9
$SKETCHINC
 40
1.0
  9
$FILLETRAD
 40
10.0
  9
$AUNITS
 70
     0
  9
$AUPREC
 70
     0
  9
$MENU
  1
.
  9
$ELEVATION
 40
0.0
  9
$PELEVATION
 40
0.0
  9
$THICKNESS
 40
0.0
  9
$LIMCHECK
 70
     0
  9
$CHAMFERA
 40
10.0
  9
$CHAMFERB
 40
10.0
  9
$CHAMFERC
 40
20.0
  9
$CHAMFERD
 40
0.0
  9
$SKPOLY
 70
     0
  9
$USRTIMER
 70
     1
  9
$ANGBASE
 50
0.0
  9
$ANGDIR
 70
     0
  9
$PDMODE
 70
     0
  9
$PDSIZE
 40
-5.0
  9
$PLINEWID
 40
0.0
  9
$SPLFRAME
 70
     0
  9
$SPLINETYPE
 70
     6
  9
$SPLINESEGS
 70
     8
  9
$HANDSEED
  5
7C49
  9
$SURFTAB1
 70
     6
  9
$SURFTAB2
 70
     6
  9
$SURFTYPE
 70
     6
  9
$SURFU
 70
     6
  9
$SURFV
 70
     6
  9
$UCSBASE
  2

  9
$UCSNAME
  2

  9
$UCSORG
 10
0.0
 20
0.0
 30
0.0
  9
$UCSXDIR
 10
1.0
 20
0.0
 30
0.0
  9
$UCSYDIR
 10
0.0
 20
1.0
 30
0.0
  9
$UCSORTHOREF
  2

  9
$UCSORTHOVIEW
 70
     0
  9
$UCSORGTOP
 10
0.0
 20
0.0
 30
0.0
  9
$UCSORGBOTTOM
 10
0.0
 20
0.0
 30
0.0
  9
$UCSORGLEFT
 10
0.0
 20
0.0
 30
0.0
  9
$UCSORGRIGHT
 10
0.0
 20
0.0
 30
0.0
  9
$UCSORGFRONT
 10
0.0
 20
0.0
 30
0.0
  9
$UCSORGBACK
 10
0.0
 20
0.0
 30
0.0
  9
$PUCSBASE
  2

  9
$PUCSNAME
  2

  9
$PUCSORG
 10
0.0
 20
0.0
 30
0.0
  9
$PUCSXDIR
 10
1.0
 20
0.0
 30
0.0
  9
$PUCSYDIR
 10
0.0
 20
1.0
 30
0.0
  9
$PUCSORTHOREF
  2

  9
$PUCSORTHOVIEW
 70
     0
  9
$PUCSORGTOP
 10
0.0
 20
0.0
 30
0.0
  9
$PUCSORGBOTTOM
 10
0.0
 20
0.0
 30
0.0
  9
$PUCSORGLEFT
 10
0.0
 20
0.0
 30
0.0
  9
$PUCSORGRIGHT
 10
0.0
 20
0.0
 30
0.0
  9
$PUCSORGFRONT
 10
0.0
 20
0.0
 30
0.0
  9
$PUCSORGBACK
 10
0.0
 20
0.0
 30
0.0
  9
$USERI1
 70
     0
  9
$USERI2
 70
     0
  9
$USERI3
 70
     0
  9
$USERI4
 70
     0
  9
$USERI5
 70
     0
  9
$USERR1
 40
0.0
  9
$USERR2
 40
0.0
  9
$USERR3
 40
0.0
  9
$USERR4
 40
0.0
  9
$USERR5
 40
0.0
  9
$WORLDVIEW
 70
     1
  9
$SHADEDGE
 70
     3
  9
$SHADEDIF
 70
    70
  9
$TILEMODE
 70
     1
  9
$MAXACTVP
 70
    64
  9
$PINSBASE
 10
0.0
 20
0.0
 30
0.0
  9
$PLIMCHECK
 70
     0
  9
$PEXTMIN
 10
-7.5
 20
-20.0
 30
0.0
  9
$PEXTMAX
 10
1181.5
 20
821.0
 30
0.0
  9
$PLIMMIN
 10
-7.5
 20
-20.0
  9
$PLIMMAX
 10
1181.5
 20
821.0
  9
$UNITMODE
 70
     0
  9
$VISRETAIN
 70
     1
  9
$PLINEGEN
 70
     0
  9
$PSLTSCALE
 70
     0
  9
$TREEDEPTH
 70
  3020
  9
$CMLSTYLE
  2
Standard
  9
$CMLJUST
 70
     0
  9
$CMLSCALE
 40
20.0
  9
$PROXYGRAPHICS
 70
     1
  9
$MEASUREMENT
 70
     1
  9
$CELWEIGHT
370
    -1
  9
$ENDCAPS
280
     0
  9
$JOINSTYLE
280
     0
  9
$LWDISPLAY
290
     1
  9
$INSUNITS
 70
     6
  9
$HYPERLINKBASE
  1

  9
$STYLESHEET
  1

  9
$XEDIT
290
     1
  9
$CEPSNTYPE
380
     0
  9
$PSTYLEMODE
290
     0
  9
$EXTNAMES
290
     1
  9
$PSVPSCALE
 40
0.0
  9
$OLESTARTUP
290
     0
  9
$SORTENTS
280
   127
  9
$INDEXCTL
280
     0
  9
$HIDETEXT
280
     0
  9
$XCLIPFRAME
290
     0
  9
$HALOGAP
280
     0
  9
$OBSCOLOR
 70
   257
  9
$OBSLTYPE
280
     0
  9
$INTERSECTIONDISPLAY
280
     0
  9
$INTERSECTIONCOLOR
 70
   257
  9
$DIMASSOC
280
     1
  9
$PROJECTNAME
  1

  0
ENDSEC
  0
SECTION
  2
CLASSES
  0
CLASS
  1
ACDBDICTIONARYWDFLT
  2
AcDbDictionaryWithDefault
  3
ObjectDBX Classes
 90
        0
 91
        1
280
     0
281
     0
  0
CLASS
  1
DICTIONARYVAR
  2
AcDbDictionaryVar
  3
ObjectDBX Classes
 90
        0
 91
        1
280
     0
281
     0
  0
ENDSEC
  0
SECTION
  2
TABLES
  0
TABLE
  2
VPORT
  5
8
330
0
100
AcDbSymbolTable
 70
     2
  0
VPORT
  5
FF0
330
8
100
AcDbSymbolTableRecord
100
AcDbViewportTableRecord
  2
*Active
 70
     0
 10
0.0
 20
0.0
 11
1.0
 21
1.0
 12
0.0
 22
0.0
 13
0.0
 23
0.0
 14
10.0
 24
10.0
 15
10.0
 25
10.0
 16
0.0
 26
0.0
 36
1.0
 17
137.8814
 27
854.7708
 37
0.0000
 40
20.6026
 41
1.89647730261617
 42
50.0
 43
0.0
 44
0.0
 50
0.0
 51
0.0
 71
     0
 72
   100
 73
     1
 74
     2
 75
     0
 76
     0
 77
     0
 78
     0
281
     0
 65
     1
110
0.0
120
0.0
130
0.0
111
1.0
121
0.0
131
0.0
112
0.0
122
1.0
132
0.0
 79
     0
146
0.0
  0
ENDTAB
  0
TABLE
  2
LTYPE
  5
5
330
0
100
AcDbSymbolTable
 70
     3
  0
LTYPE
  5
14
330
5
100
AcDbSymbolTableRecord
100
AcDbLinetypeTableRecord
  2
ByBlock
 70
     0
  3

 72
    65
 73
     0
 40
0.0
  0
LTYPE
  5
15
330
5
100
AcDbSymbolTableRecord
100
AcDbLinetypeTableRecord
  2
ByLayer
 70
     0
  3

 72
    65
 73
     0
 40
0.0
  0
LTYPE
  5
16
330
5
100
AcDbSymbolTableRecord
100
AcDbLinetypeTableRecord
  2
Continuous
 70
     0
  3
Solid line
 72
    65
 73
     0
 40
0.0
  0
ENDTAB
  0
TABLE
  2
LAYER
  5
2
330
0
100
AcDbSymbolTable
 70
     1
  0
LAYER
  5
10
330
2
100
AcDbSymbolTableRecord
100
AcDbLayerTableRecord
  2
0
 70
     0
 62
     7
  6
Continuous
370
    -3
390
F
  0
ENDTAB
  0
TABLE
  2
STYLE
  5
3
330
0
100
AcDbSymbolTable
 70
     3
  0
STYLE
  5
11
330
3
100
AcDbSymbolTableRecord
100
AcDbTextStyleTableRecord
  2
Standard
 70
     0
 40
0.0
 41
0.75
 50
0.0
 71
     0
 42
2.5
  3
txt
  4

  0
STYLE
  5
1001
330
3
100
AcDbSymbolTableRecord
100
AcDbTextStyleTableRecord
  2
Arial Gras
 70
     0
 40
0.0
 41
0.75
 50
0.0
 71
     0
 42
2.5
  3
arialbd.ttf
  4

1001
ACAD
1000
Arial
1071
 33554450
  0
STYLE
  5
107C
330
3
100
AcDbSymbolTableRecord
100
AcDbTextStyleTableRecord
  2

 70
     1
 40
0.0
 41
0.75
 50
0.0
 71
     0
 42
2.5
  3
jsi_form.shx
  4

  0
ENDTAB
  0
TABLE
  2
VIEW
  5
6
330
0
100
AcDbSymbolTable
 70
     0
  0
ENDTAB
  0
TABLE
  2
UCS
  5
7
330
0
100
AcDbSymbolTable
 70
     0
  0
ENDTAB
  0
TABLE
  2
APPID
  5
9
330
0
100
AcDbSymbolTable
 70
     1
  0
APPID
  5
12
330
9
100
AcDbSymbolTableRecord
100
AcDbRegAppTableRecord
  2
ACAD
 70
     0
  0
ENDTAB
  0
TABLE
  2
DIMSTYLE
  5
A
330
0
100
AcDbSymbolTable
 70
     1
100
AcDbDimStyleTable
 71
     0
  0
DIMSTYLE
105
27
330
A
100
AcDbSymbolTableRecord
100
AcDbDimStyleTableRecord
  2
Standard
 70
     0
340
11
  0
ENDTAB
  0
TABLE
  2
BLOCK_RECORD
  5
1
330
0
100
AcDbSymbolTable
 70
     3
  0
BLOCK_RECORD
  5
1F
330
1
100
AcDbSymbolTableRecord
100
AcDbBlockTableRecord
  2
*Model_Space
340
22
  0
BLOCK_RECORD
  5
59
330
1
100
AcDbSymbolTableRecord
100
AcDbBlockTableRecord
  2
*Paper_Space
340
5A
  0
BLOCK_RECORD
  5
7A69
330
1
100
AcDbSymbolTableRecord
100
AcDbBlockTableRecord
  2
$Y.000
340
0
  0
ENDTAB
  0
ENDSEC
  0
SECTION
  2
BLOCKS
  0
BLOCK
  5
20
330
1F
100
AcDbEntity
  8
0
100
AcDbBlockBegin
  2
*Model_Space
 70
     0
 10
0.0
 20
0.0
 30
0.0
  3
*Model_Space
  1

  0
ENDBLK
  5
21
330
1F
100
AcDbEntity
  8
0
100
AcDbBlockEnd
  0
BLOCK
  5
5B
330
59
100
AcDbEntity
 67
     1
  8
0
100
AcDbBlockBegin
  2
*Paper_Space
 70
     0
 10
0.0
 20
0.0
 30
0.0
  3
*Paper_Space
  1

  0
ENDBLK
  5
5C
330
59
100
AcDbEntity
 67
     1
  8
0
100
AcDbBlockEnd
  0
BLOCK
  5
7A6A
330
7A69
100
AcDbEntity
  8
0
100
AcDbBlockBegin
  2
$Y.000
 70
     2
 10
0.0
 20
0.0
 30
0.0
  3
$Y.000
  1

  0
POINT
  5
7A6C
330
7A69
100
AcDbEntity
  8
0
  6
ByBlock
 62
     0
370
    -2
100
AcDbPoint
 10
0.0
 20
0.0
 30
0.0
  0
ENDBLK
  5
7A6B
330
7A69
100
AcDbEntity
  8
0
100
AcDbBlockEnd
  0
ENDSEC
  0
SECTION
  2
ENTITIES
  0
INSERT
  5
7BEC
330
1F
100
AcDbEntity
  8
0
  6
Continuous
 62
     7
370
    15
100
AcDbBlockReference
 66
     1
  2
$Y.000
 10
132.628300000004
 20
852.279699999999
 30
147.529999999999
 41
1.0
 42
1.0
  0
ATTRIB
  5
7BEE
330
7BEC
100
AcDbEntity
  8
0
  6
Continuous
 62
     5
100
AcDbText
 10
132.708300000004
 20
852.359699999999
 30
147.529999999999
 40
0.16
  1
1
 41
0.75
  7
Arial Gras
100
AcDbAttribute
  2
M
 70
     0
  0
SEQEND
  5
7BED
330
7BEC
100
AcDbEntity
  8
0
  0
INSERT
  5
7BEF
330
1F
100
AcDbEntity
  8
0
  6
Continuous
 62
     7
370
    15
100
AcDbBlockReference
 66
     1
  2
$Y.000
 10
139.977100000004
 20
852.9692
 30
148.420000000006
 41
1.0
 42
1.0
  0
ATTRIB
  5
7BF1
330
7BEF
100
AcDbEntity
  8
0
  6
Continuous
 62
     5
100
AcDbText
 10
140.057100000004
 20
853.0492
 30
148.420000000006
 40
0.16
  1
2
 41
0.75
  7
Arial Gras
100
AcDbAttribute
  2
M
 70
     0
  0
SEQEND
  5
7BF0
330
7BEF
100
AcDbEntity
  8
0
  0
INSERT
  5
7BF2
330
1F
100
AcDbEntity
  8
0
  6
Continuous
 62
     7
370
    15
100
AcDbBlockReference
 66
     1
  2
$Y.000
 10
135.404999999999
 20
851.296300000002
 30
149.029999999999
 41
1.0
 42
1.0
  0
ATTRIB
  5
7BF4
330
7BF2
100
AcDbEntity
  8
0
  6
Continuous
 62
     5
100
AcDbText
 10
135.484999999999
 20
851.376300000002
 30
149.029999999999
 40
0.16
  1
3
 41
0.75
  7
Arial Gras
100
AcDbAttribute
  2
M
 70
     0
  0
SEQEND
  5
7BF3
330
7BF2
100
AcDbEntity
  8
0
  0
INSERT
  5
7BF5
330
1F
100
AcDbEntity
  8
0
  6
Continuous
 62
     7
370
    15
100
AcDbBlockReference
 66
     1
  2
$Y.000
 10
124.442800000004
 20
860.865600000005
 30
148.770000000004
 41
1.0
 42
1.0
  0
ATTRIB
  5
7BF7
330
7BF5
100
AcDbEntity
  8
0
  6
Continuous
 62
     5
100
AcDbText
 10
124.522800000004
 20
860.945600000005
 30
148.770000000004
 40
0.16
  1
4
 41
0.75
  7
Arial Gras
100
AcDbAttribute
  2
M
 70
     0
  0
SEQEND
  5
7BF6
330
7BF5
100
AcDbEntity
  8
0
  0
INSERT
  5
7BF8
330
1F
100
AcDbEntity
  8
0
  6
Continuous
 62
     7
370
    15
100
AcDbBlockReference
 66
     1
  2
$Y.000
 10
121.813900000001
 20
854.195500000002
 30
149.150000000001
 41
1.0
 42
1.0
  0
ATTRIB
  5
7BFA
330
7BF8
100
AcDbEntity
  8
0
  6
Continuous
 62
     5
100
AcDbText
 10
121.893900000001
 20
854.275500000002
 30
149.150000000001
 40
0.16
  1
5
 41
0.75
  7
Arial Gras
100
AcDbAttribute
  2
M
 70
     0
  0
SEQEND
  5
7BF9
330
7BF8
100
AcDbEntity
  8
0
  0
INSERT
  5
7BFB
330
1F
100
AcDbEntity
  8
0
  6
Continuous
 62
     7
370
    15
100
AcDbBlockReference
 66
     1
  2
$Y.000
 10
119.088500000005
 20
847.3675
 30
148.980000000003
 41
1.0
 42
1.0
  0
ATTRIB
  5
7BFD
330
7BFB
100
AcDbEntity
  8
0
  6
Continuous
 62
     5
100
AcDbText
 10
119.168500000005
 20
847.4475
 30
148.980000000003
 40
0.16
  1
6
 41
0.75
  7
Arial Gras
100
AcDbAttribute
  2
M
 70
     0
  0
SEQEND
  5
7BFC
330
7BFB
100
AcDbEntity
  8
0
  0
INSERT
  5
7BFE
330
1F
100
AcDbEntity
  8
0
  6
Continuous
 62
     7
370
    15
100
AcDbBlockReference
 66
     1
  2
$Y.000
 10
118.794000000002
 20
846.610200000003
 30
148.910000000003
 41
1.0
 42
1.0
  0
ATTRIB
  5
7C00
330
7BFE
100
AcDbEntity
  8
0
  6
Continuous
 62
     5
100
AcDbText
 10
118.874000000002
 20
846.690200000003
 30
148.910000000003
 40
0.16
  1
7
 41
0.75
  7
Arial Gras
100
AcDbAttribute
  2
M
 70
     0
  0
SEQEND
  5
7BFF
330
7BFE
100
AcDbEntity
  8
0
  0
INSERT
  5
7C01
330
1F
100
AcDbEntity
  8
0
  6
Continuous
 62
     7
370
    15
100
AcDbBlockReference
 66
     1
  2
$Y.000
 10
125.135800000004
 20
850.241800000003
 30
149.07
 41
1.0
 42
1.0
  0
ATTRIB
  5
7C03
330
7C01
100
AcDbEntity
  8
0
  6
Continuous
 62
     5
100
AcDbText
 10
125.215800000004
 20
850.321800000003
 30
149.07
 40
0.16
  1
8
 41
0.75
  7
Arial Gras
100
AcDbAttribute
  2
M
 70
     0
  0
SEQEND
  5
7C02
330
7C01
100
AcDbEntity
  8
0
  0
INSERT
  5
7C04
330
1F
100
AcDbEntity
  8
0
  6
Continuous
 62
     7
370
    15
100
AcDbBlockReference
 66
     1
  2
$Y.000
 10
126.889999999999
 20
854.854600000006
 30
149.110000000001
 41
1.0
 42
1.0
  0
ATTRIB
  5
7C06
330
7C04
100
AcDbEntity
  8
0
  6
Continuous
 62
     5
100
AcDbText
 10
126.969999999999
 20
854.934600000006
 30
149.110000000001
 40
0.16
  1
9
 41
0.75
  7
Arial Gras
100
AcDbAttribute
  2
M
 70
     0
  0
SEQEND
  5
7C05
330
7C04
100
AcDbEntity
  8
0
  0
INSERT
  5
7C07
330
1F
100
AcDbEntity
  8
0
  6
Continuous
 62
     7
370
    15
100
AcDbBlockReference
 66
     1
  2
$Y.000
 10
128.7817
 20
858.870900000002
 30
148.760000000002
 41
1.0
 42
1.0
  0
ATTRIB
  5
7C09
330
7C07
100
AcDbEntity
  8
0
  6
Continuous
 62
     5
100
AcDbText
 10
128.8617
 20
858.950900000002
 30
148.760000000002
 40
0.16
  1
10
 41
0.75
  7
Arial Gras
100
AcDbAttribute
  2
M
 70
     0
  0
SEQEND
  5
7C08
330
7C07
100
AcDbEntity
  8
0
  0
INSERT
  5
7C0A
330
1F
100
AcDbEntity
  8
0
  6
Continuous
 62
     7
370
    15
100
AcDbBlockReference
 66
     1
  2
$Y.000
 10
130.383500000004
 20
862.848700000002
 30
148.779999999999
 41
1.0
 42
1.0
  0
ATTRIB
  5
7C0C
330
7C0A
100
AcDbEntity
  8
0
  6
Continuous
 62
     5
100
AcDbText
 10
130.463500000004
 20
862.928700000002
 30
148.779999999999
 40
0.16
  1
11
 41
0.75
  7
Arial Gras
100
AcDbAttribute
  2
M
 70
     0
  0
SEQEND
  5
7C0B
330
7C0A
100
AcDbEntity
  8
0
  0
INSERT
  5
7C0D
330
1F
100
AcDbEntity
  8
0
  6
Continuous
 62
     7
370
    15
100
AcDbBlockReference
 66
     1
  2
$Y.000
 10
134.404999999999
 20
861.5357
 30
148.810000000005
 41
1.0
 42
1.0
  0
ATTRIB
  5
7C0F
330
7C0D
100
AcDbEntity
  8
0
  6
Continuous
 62
     5
100
AcDbText
 10
134.484999999999
 20
861.6157
 30
148.810000000005
 40
0.16
  1
12
 41
0.75
  7
Arial Gras
100
AcDbAttribute
  2
M
 70
     0
  0
SEQEND
  5
7C0E
330
7C0D
100
AcDbEntity
  8
0
  0
INSERT
  5
7C10
330
1F
100
AcDbEntity
  8
0
  6
Continuous
 62
     7
370
    15
100
AcDbBlockReference
 66
     1
  2
$Y.000
 10
138.121500000001
 20
859.339800000002
 30
148.959999999999
 41
1.0
 42
1.0
  0
ATTRIB
  5
7C12
330
7C10
100
AcDbEntity
  8
0
  6
Continuous
 62
     5
100
AcDbText
 10
138.201500000001
 20
859.419800000002
 30
148.959999999999
 40
0.16
  1
13
 41
0.75
  7
Arial Gras
100
AcDbAttribute
  2
M
 70
     0
  0
SEQEND
  5
7C11
330
7C10
100
AcDbEntity
  8
0
  0
INSERT
  5
7C13
330
1F
100
AcDbEntity
  8
0
  6
Continuous
 62
     7
370
    15
100
AcDbBlockReference
 66
     1
  2
$Y.000
 10
137.630300000004
 20
855.902600000001
 30
149.040000000001
 41
1.0
 42
1.0
  0
ATTRIB
  5
7C15
330
7C13
100
AcDbEntity
  8
0
  6
Continuous
 62
     5
100
AcDbText
 10
137.710300000004
 20
855.982600000001
 30
149.040000000001
 40
0.16
  1
14
 41
0.75
  7
Arial Gras
100
AcDbAttribute
  2
M
 70
     0
  0
SEQEND
  5
7C14
330
7C13
100
AcDbEntity
  8
0
  0
INSERT
  5
7C16
330
1F
100
AcDbEntity
  8
0
  6
Continuous
 62
     7
370
    15
100
AcDbBlockReference
 66
     1
  2
$Y.000
 10
136.580500000004
 20
851.380600000004
 30
149.040000000001
 41
1.0
 42
1.0
  0
ATTRIB
  5
7C18
330
7C16
100
AcDbEntity
  8
0
  6
Continuous
 62
     5
100
AcDbText
 10
136.660500000004
 20
851.460600000004
 30
149.040000000001
 40
0.16
  1
15
 41
0.75
  7
Arial Gras
100
AcDbAttribute
  2
M
 70
     0
  0
SEQEND
  5
7C17
330
7C16
100
AcDbEntity
  8
0
  0
INSERT
  5
7C19
330
1F
100
AcDbEntity
  8
0
  6
Continuous
 62
     7
370
    15
100
AcDbBlockReference
 66
     1
  2
$Y.000
 10
136.234500000006
 20
847.350400000003
 30
148.900000000001
 41
1.0
 42
1.0
  0
ATTRIB
  5
7C1B
330
7C19
100
AcDbEntity
  8
0
  6
Continuous
 62
     5
100
AcDbText
 10
136.314500000006
 20
847.430400000003
 30
148.900000000001
 40
0.16
  1
16
 41
0.75
  7
Arial Gras
100
AcDbAttribute
  2
M
 70
     0
  0
SEQEND
  5
7C1A
330
7C19
100
AcDbEntity
  8
0
  0
INSERT
  5
7C1C
330
1F
100
AcDbEntity
  8
0
  6
Continuous
 62
     7
370
    15
100
AcDbBlockReference
 66
     1
  2
$Y.000
 10
132.593500000003
 20
847.333000000006
 30
148.870000000003
 41
1.0
 42
1.0
  0
ATTRIB
  5
7C1E
330
7C1C
100
AcDbEntity
  8
0
  6
Continuous
 62
     5
100
AcDbText
 10
132.673500000003
 20
847.413000000006
 30
148.870000000003
 40
0.16
  1
17
 41
0.75
  7
Arial Gras
100
AcDbAttribute
  2
M
 70
     0
  0
SEQEND
  5
7C1D
330
7C1C
100
AcDbEntity
  8
0
  0
INSERT
  5
7C1F
330
1F
100
AcDbEntity
  8
0
  6
Continuous
 62
     7
370
    15
100
AcDbBlockReference
 66
     1
  2
$Y.000
 10
131.5173
 20
866.892800000001
 30
148.82
 41
1.0
 42
1.0
  0
ATTRIB
  5
7C21
330
7C1F
100
AcDbEntity
  8
0
  6
Continuous
 62
     5
100
AcDbText
 10
131.5973
 20
866.972800000001
 30
148.82
 40
0.16
  1
18
 41
0.75
  7
Arial Gras
100
AcDbAttribute
  2
M
 70
     0
  0
SEQEND
  5
7C20
330
7C1F
100
AcDbEntity
  8
0
  0
INSERT
  5
7C22
330
1F
100
AcDbEntity
  8
0
  6
Continuous
 62
     7
370
    15
100
AcDbBlockReference
 66
     1
  2
$Y.000
 10
137.712500000001
 20
865.515299999999
 30
148.910000000003
 41
1.0
 42
1.0
  0
ATTRIB
  5
7C24
330
7C22
100
AcDbEntity
  8
0
  6
Continuous
 62
     5
100
AcDbText
 10
137.792500000001
 20
865.595299999999
 30
148.910000000003
 40
0.16
  1
19
 41
0.75
  7
Arial Gras
100
AcDbAttribute
  2
M
 70
     0
  0
SEQEND
  5
7C23
330
7C22
100
AcDbEntity
  8
0
  0
INSERT
  5
7C25
330
1F
100
AcDbEntity
  8
0
  6
Continuous
 62
     7
370
    15
100
AcDbBlockReference
 66
     1
  2
$Y.000
 10
146.6973
 20
864.310799999999
 30
148.889999999999
 41
1.0
 42
1.0
  0
ATTRIB
  5
7C27
330
7C25
100
AcDbEntity
  8
0
  6
Continuous
 62
     5
100
AcDbText
 10
146.7773
 20
864.390799999999
 30
148.889999999999
 40
0.16
  1
20
 41
0.75
  7
Arial Gras
100
AcDbAttribute
  2
M
 70
     0
  0
SEQEND
  5
7C26
330
7C25
100
AcDbEntity
  8
0
  0
INSERT
  5
7C28
330
1F
100
AcDbEntity
  8
0
  6
Continuous
 62
     7
370
    15
100
AcDbBlockReference
 66
     1
  2
$Y.000
 10
145.554500000006
 20
858.700900000003
 30
148.900000000001
 41
1.0
 42
1.0
  0
ATTRIB
  5
7C2A
330
7C28
100
AcDbEntity
  8
0
  6
Continuous
 62
     5
100
AcDbText
 10
145.634500000006
 20
858.780900000004
 30
148.900000000001
 40
0.16
  1
21
 41
0.75
  7
Arial Gras
100
AcDbAttribute
  2
M
 70
     0
  0
SEQEND
  5
7C29
330
7C28
100
AcDbEntity
  8
0
  0
INSERT
  5
7C2B
330
1F
100
AcDbEntity
  8
0
  6
Continuous
 62
     7
370
    15
100
AcDbBlockReference
 66
     1
  2
$Y.000
 10
145.307700000005
 20
856.236199999999
 30
149.060000000005
 41
1.0
 42
1.0
  0
ATTRIB
  5
7C2D
330
7C2B
100
AcDbEntity
  8
0
  6
Continuous
 62
     5
100
AcDbText
 10
145.387700000005
 20
856.316199999999
 30
149.060000000005
 40
0.16
  1
22
 41
0.75
  7
Arial Gras
100
AcDbAttribute
  2
M
 70
     0
  0
SEQEND
  5
7C2C
330
7C2B
100
AcDbEntity
  8
0
  0
INSERT
  5
7C2E
330
1F
100
AcDbEntity
  8
0
  6
Continuous
 62
     7
370
    15
100
AcDbBlockReference
 66
     1
  2
$Y.000
 10
144.528300000005
 20
850.403600000005
 30
148.959999999999
 41
1.0
 42
1.0
  0
ATTRIB
  5
7C30
330
7C2E
100
AcDbEntity
  8
0
  6
Continuous
 62
     5
100
AcDbText
 10
144.608300000005
 20
850.483600000005
 30
148.959999999999
 40
0.16
  1
23
 41
0.75
  7
Arial Gras
100
AcDbAttribute
  2
M
 70
     0
  0
SEQEND
  5
7C2F
330
7C2E
100
AcDbEntity
  8
0
  0
INSERT
  5
7C31
330
1F
100
AcDbEntity
  8
0
  6
Continuous
 62
     7
370
    15
100
AcDbBlockReference
 66
     1
  2
$Y.000
 10
144.030600000006
 20
847.106599999999
 30
148.82
 41
1.0
 42
1.0
  0
ATTRIB
  5
7C33
330
7C31
100
AcDbEntity
  8
0
  6
Continuous
 62
     5
100
AcDbText
 10
144.110600000006
 20
847.186599999999
 30
148.82
 40
0.16
  1
24
 41
0.75
  7
Arial Gras
100
AcDbAttribute
  2
M
 70
     0
  0
SEQEND
  5
7C32
330
7C31
100
AcDbEntity
  8
0
  0
INSERT
  5
7C34
330
1F
100
AcDbEntity
  8
0
  6
Continuous
 62
     7
370
    15
100
AcDbBlockReference
 66
     1
  2
$Y.000
 10
135.395000000004
 20
851.290200000003
 30
149.020000000004
 41
1.0
 42
1.0
  0
ATTRIB
  5
7C36
330
7C34
100
AcDbEntity
  8
0
  6
Continuous
 62
     5
100
AcDbText
 10
135.475000000004
 20
851.370200000003
 30
149.020000000004
 40
0.16
  1
25
 41
0.75
  7
Arial Gras
100
AcDbAttribute
  2
M
 70
     0
  0
SEQEND
  5
7C35
330
7C34
100
AcDbEntity
  8
0
  0
INSERT
  5
7C37
330
1F
100
AcDbEntity
  8
0
  6
Continuous
 62
     7
370
    15
100
AcDbBlockReference
 66
     1
  2
$Y.000
 10
135.392500000002
 20
851.292800000003
 30
149.029999999999
 41
1.0
 42
1.0
  0
ATTRIB
  5
7C39
330
7C37
100
AcDbEntity
  8
0
  6
Continuous
 62
     5
100
AcDbText
 10
135.472500000002
 20
851.372800000003
 30
149.029999999999
 40
0.16
  1
26
 41
0.75
  7
Arial Gras
100
AcDbAttribute
  2
M
 70
     0
  0
SEQEND
  5
7C38
330
7C37
100
AcDbEntity
  8
0
  0
INSERT
  5
7C3A
330
1F
100
AcDbEntity
  8
0
  6
Continuous
 62
     7
370
    15
100
AcDbBlockReference
 66
     1
  2
$Y.000
 10
135.391900000002
 20
851.290400000005
 30
149.029999999999
 41
1.0
 42
1.0
  0
ATTRIB
  5
7C3C
330
7C3A
100
AcDbEntity
  8
0
  6
Continuous
 62
     5
100
AcDbText
 10
135.471900000002
 20
851.370400000005
 30
149.029999999999
 40
0.16
  1
27
 41
0.75
  7
Arial Gras
100
AcDbAttribute
  2
M
 70
     0
  0
SEQEND
  5
7C3B
330
7C3A
100
AcDbEntity
  8
0
  0
INSERT
  5
7C3D
330
1F
100
AcDbEntity
  8
0
  6
Continuous
 62
     7
370
    15
100
AcDbBlockReference
 66
     1
  2
$Y.000
 10
135.395000000004
 20
851.285300000003
 30
149.029999999999
 41
1.0
 42
1.0
  0
ATTRIB
  5
7C3F
330
7C3D
100
AcDbEntity
  8
0
  6
Continuous
 62
     5
100
AcDbText
 10
135.475000000004
 20
851.365300000003
 30
149.029999999999
 40
0.16
  1
28
 41
0.75
  7
Arial Gras
100
AcDbAttribute
  2
M
 70
     0
  0
SEQEND
  5
7C3E
330
7C3D
100
AcDbEntity
  8
0
  0
INSERT
  5
7C40
330
1F
100
AcDbEntity
  8
0
  6
Continuous
 62
     7
370
    15
100
AcDbBlockReference
 66
     1
  2
$Y.000
 10
135.396500000003
 20
851.285100000001
 30
149.029999999999
 41
1.0
 42
1.0
  0
ATTRIB
  5
7C42
330
7C40
100
AcDbEntity
  8
0
  6
Continuous
 62
     5
100
AcDbText
 10
135.476500000003
 20
851.365100000001
 30
149.029999999999
 40
0.16
  1
29
 41
0.75
  7
Arial Gras
100
AcDbAttribute
  2
M
 70
     0
  0
SEQEND
  5
7C41
330
7C40
100
AcDbEntity
  8
0
  0
INSERT
  5
7C43
330
1F
100
AcDbEntity
  8
0
  6
Continuous
 62
     7
370
    15
100
AcDbBlockReference
 66
     1
  2
$Y.000
 10
135.390500000001
 20
851.300900000002
 30
149.029999999999
 41
1.0
 42
1.0
  0
ATTRIB
  5
7C45
330
7C43
100
AcDbEntity
  8
0
  6
Continuous
 62
     5
100
AcDbText
 10
135.470500000001
 20
851.380900000002
 30
149.029999999999
 40
0.16
  1
30
 41
0.75
  7
Arial Gras
100
AcDbAttribute
  2
M
 70
     0
  0
SEQEND
  5
7C44
330
7C43
100
AcDbEntity
  8
0
  0
INSERT
  5
7C46
330
1F
100
AcDbEntity
  8
0
  6
Continuous
 62
     7
370
    15
100
AcDbBlockReference
 66
     1
  2
$Y.000
 10
135.394
 20
851.295000000006
 30
149.040000000001
 41
1.0
 42
1.0
  0
ATTRIB
  5
7C48
330
7C46
100
AcDbEntity
  8
0
  6
Continuous
 62
     5
100
AcDbText
 10
135.474
 20
851.375000000006
 30
149.040000000001
 40
0.16
  1
31
 41
0.75
  7
Arial Gras
100
AcDbAttribute
  2
M
 70
     0
  0
SEQEND
  5
7C47
330
7C46
100
AcDbEntity
  8
0
  0
VIEWPORT
  5
7BEB
330
59
100
AcDbEntity
 67
     1
  8
0
100
AcDbViewport
 10
587.0
 20
400.5
 30
0.0
 40
1236.56
 41
874.64
 68
     1
 69
     1
 12
587.0
 22
400.5
 13
0.0
 23
0.0
 14
10.0
 24
10.0
 15
10.0
 25
10.0
 16
0.0
 26
0.0
 36
1.0
 17
0.0
 27
0.0
 37
0.0
 42
50.0
 43
0.0
 44
0.0
 45
874.64
 50
0.0
 51
0.0
 72
   100
 90
    32768
  1

281
     0
 71
     1
 74
     0
110
0.0
120
0.0
130
0.0
111
1.0
121
0.0
131
0.0
112
0.0
122
1.0
132
0.0
 79
     0
146
0.0
170
     0
  0
ENDSEC
  0
SECTION
  2
OBJECTS
  0
DICTIONARY
  5
C
330
0
100
AcDbDictionary
281
     1
  3
ACAD_GROUP
350
D
  3
ACAD_LAYOUT
350
1A
  3
ACAD_MLINESTYLE
350
17
  3
ACAD_PLOTSETTINGS
350
19
  3
ACAD_PLOTSTYLENAME
350
E
  3
AcDbVariableDictionary
350
FB
  0
DICTIONARY
  5
D
102
{ACAD_REACTORS
330
C
102
}
330
C
100
AcDbDictionary
281
     1
  0
DICTIONARY
  5
1A
102
{ACAD_REACTORS
330
C
102
}
330
C
100
AcDbDictionary
281
     1
  3
Model
350
22
  3
Présentation1
350
5A
  0
DICTIONARY
  5
17
102
{ACAD_REACTORS
330
C
102
}
330
C
100
AcDbDictionary
281
     1
  3
Standard
350
18
  0
DICTIONARY
  5
19
102
{ACAD_REACTORS
330
C
102
}
330
C
100
AcDbDictionary
281
     1
  0
ACDBDICTIONARYWDFLT
  5
E
102
{ACAD_REACTORS
330
C
102
}
330
C
100
AcDbDictionary
281
     1
  3
Normal
350
F
100
AcDbDictionaryWithDefault
340
F
  0
DICTIONARY
  5
FB
102
{ACAD_REACTORS
330
C
102
}
330
C
100
AcDbDictionary
281
     1
  3
SORTENTS
350
FC
  0
LAYOUT
  5
22
102
{ACAD_REACTORS
330
1A
102
}
330
1A
100
AcDbPlotSettings
  1

  2
none_device
  4
ISO_A4_(297.00_x_210.00_MM)
  6

 40
7.5
 41
20.0
 42
7.5
 43
20.0
 44
297.0
 45
210.0
 46
0.0
 47
0.0
 48
0.0
 49
0.0
140
0.0
141
0.0
142
1.0
143
0.4789396801096095
 70
 11952
 72
     1
 73
     0
 74
     0
  7

 75
     0
 76
     0
 77
     2
 78
   300
147
2.087945604697321
148
58.17870683047093
149
40.7098728093168
100
AcDbLayout
  1
Model
 70
     1
 71
     0
 10
0.0
 20
0.0
 11
12.0
 21
9.0
 12
0.0
 22
0.0
 32
0.0
 14
0.0
 24
0.0
 34
0.0
 15
0.0
 25
0.0
 35
0.0
146
0.0
 13
0.0
 23
0.0
 33
0.0
 16
1.0
 26
0.0
 36
0.0
 17
0.0
 27
1.0
 37
0.0
 76
     0
330
1F
  0
LAYOUT
  5
5A
102
{ACAD_REACTORS
330
1A
102
}
330
1A
100
AcDbPlotSettings
  1

  2
Aucun
  4
A0
  6

 40
7.5
 41
20.0
 42
7.5
 43
20.0
 44
1189.0
 45
841.0
 46
0.0
 47
0.0
 48
0.0
 49
0.0
140
0.0
141
0.0
142
1.0
143
1.0
 70
   688
 72
     1
 73
     0
 74
     5
  7

 75
    16
 76
     0
 77
     2
 78
   300
147
1.0
148
0.0
149
0.0
100
AcDbLayout
  1
Présentation1
 70
     0
 71
     1
 10
-7.5
 20
-20.0
 11
1181.5
 21
821.0
 12
0.0
 22
0.0
 32
0.0
 14
0.0
 24
0.0
 34
0.0
 15
1181.5
 25
821.0
 35
0.0
146
0.0
 13
0.0
 23
0.0
 33
0.0
 16
1.0
 26
0.0
 36
0.0
 17
0.0
 27
1.0
 37
0.0
 76
     0
330
59
  0
MLINESTYLE
  5
18
102
{ACAD_REACTORS
330
17
102
}
330
17
100
AcDbMlineStyle
  2
STANDARD
 70
     0
  3

 62
   256
 51
90.0
 52
90.0
 71
     2
 49
0.5
 62
   256
  6
BYLAYER
 49
-0.5
 62
   256
  6
BYLAYER
  0
ACDBPLACEHOLDER
  5
F
102
{ACAD_REACTORS
330
E
102
}
330
E
  0
DICTIONARYVAR
  5
FC
102
{ACAD_REACTORS
330
FB
102
}
330
FB
100
DictionaryVariables
280
     0
  1
127
  0
ENDSEC
  0
EOF
